<?xml version="1.0" encoding="utf-8"?>
<svg version="1.1" xmlns:xlink="http://www.w3.org/1999/xlink" width="32px" height="32px" xmlns="http://www.w3.org/2000/svg">
  <g transform="matrix(1 0 0 1 -120 -193 )">
    <path d="M 136 193  C 144.96 193  152 200.04  152 209  C 152 217.96  144.96 225  136 225  C 127.04 225  120 217.96  120 209  C 120 200.04  127.04 193  136 193  Z " fill-rule="nonzero" fill="#ffffff" stroke="none" fill-opacity="0" />
    <path d="M 136 193.5  C 144.68 193.5  151.5 200.32  151.5 209  C 151.5 217.68  144.68 224.5  136 224.5  C 127.32 224.5  120.5 217.68  120.5 209  C 120.5 200.32  127.32 193.5  136 193.5  Z " stroke-width="1" stroke="#487cab" fill="none" />
  </g>
</svg>