<?xml version="1.0" encoding="utf-8"?>
<svg version="1.1" xmlns:xlink="http://www.w3.org/1999/xlink" width="10px" height="10px" xmlns="http://www.w3.org/2000/svg">
  <g transform="matrix(1 0 0 1 -14 -312 )">
    <path d="M 19 312  C 21.8 312  24 314.2  24 317  C 24 319.8  21.8 322  19 322  C 16.2 322  14 319.8  14 317  C 14 314.2  16.2 312  19 312  Z " fill-rule="nonzero" fill="#ffffff" stroke="none" />
    <path d="M 19 312.5  C 21.52 312.5  23.5 314.48  23.5 317  C 23.5 319.52  21.52 321.5  19 321.5  C 16.48 321.5  14.5 319.52  14.5 317  C 14.5 314.48  16.48 312.5  19 312.5  Z " stroke-width="1" stroke="#797979" fill="none" />
  </g>
</svg>