<?xml version="1.0" encoding="utf-8"?>
<svg version="1.1" xmlns:xlink="http://www.w3.org/1999/xlink" width="30px" height="33px" xmlns="http://www.w3.org/2000/svg">
  <g transform="matrix(1 0 0 1 -168 -286 )">
    <path d="M 26.8678977272727 13.341796875  C 27.1377840909091 13.0696614583333  27.2727272727273 12.7473958333333  27.2727272727273 12.375  C 27.2727272727273 12.0026041666667  27.1377840909091 11.6803385416667  26.8678977272727 11.408203125  C 26.5980113636364 11.1360677083333  26.2784090909091 11  25.9090909090909 11  C 25.5397727272727 11  25.2201704545455 11.1360677083333  24.9502840909091 11.408203125  C 24.6803977272727 11.6803385416667  24.5454545454545 12.0026041666667  24.5454545454545 12.375  C 24.5454545454545 12.7473958333333  24.6803977272727 13.0696614583333  24.9502840909091 13.341796875  C 25.2201704545455 13.6139322916667  25.5397727272727 13.75  25.9090909090909 13.75  C 26.2784090909091 13.75  26.5980113636364 13.6139322916667  26.8678977272727 13.341796875  Z M 28.8068181818182 9.453125  C 29.6022727272727 10.2552083333333  30 11.2291666666667  30 12.375  C 30 13.2630208333333  29.7478693181818 14.0579427083333  29.2436079545455 14.759765625  C 28.7393465909091 15.4615885416667  28.0823863636364 15.962890625  27.2727272727273 16.263671875  L 27.2727272727273 24.75  C 27.2727272727273 27.02734375  26.3387784090909 28.9716796875  24.4708806818182 30.5830078125  C 22.6029829545455 32.1943359375  20.3551136363636 33  17.7272727272727 33  C 15.0994318181818 33  12.8515625 32.1943359375  10.9836647727273 30.5830078125  C 9.11576704545455 28.9716796875  8.18181818181818 27.02734375  8.18181818181818 24.75  L 8.18181818181818 21.9140625  C 5.85227272727273 21.6276041666667  3.90625 20.7109375  2.34375 19.1640625  C 0.78125 17.6171875  0 15.8125  0 13.75  L 0 2.75  C 0 2.37760416666666  0.134943181818182 2.05533854166666  0.404829545454546 1.783203125  C 0.674715909090909 1.51106770833333  0.994318181818182 1.375  1.36363636363636 1.375  C 1.44886363636364 1.375  1.5625 1.38932291666666  1.70454545454545 1.41796875  C 1.94602272727273 0.988281249999999  2.27982954545455 0.64453125  2.70596590909091 0.38671875  C 3.13210227272727 0.12890625  3.59375 0  4.09090909090909 0  C 4.84375 0  5.48650568181818 0.268554687500001  6.01917613636364 0.8056640625  C 6.55184659090909 1.3427734375  6.81818181818182 1.99088541666666  6.81818181818182 2.75  C 6.81818181818182 3.50911458333333  6.55184659090909 4.1572265625  6.01917613636364 4.6943359375  C 5.48650568181818 5.2314453125  4.84375 5.5  4.09090909090909 5.5  C 3.62215909090909 5.5  3.16761363636364 5.37109375  2.72727272727273 5.11328125  L 2.72727272727273 13.75  C 2.72727272727273 15.2682291666667  3.39488636363636 16.564453125  4.73011363636364 17.638671875  C 6.06534090909091 18.712890625  7.67045454545455 19.25  9.54545454545455 19.25  C 11.4204545454545 19.25  13.0255681818182 18.712890625  14.3607954545455 17.638671875  C 15.6960227272727 16.564453125  16.3636363636364 15.2682291666667  16.3636363636364 13.75  L 16.3636363636364 5.11328125  C 15.9232954545455 5.37109375  15.46875 5.5  15 5.5  C 14.2471590909091 5.5  13.6044034090909 5.2314453125  13.0717329545455 4.6943359375  C 12.5390625 4.1572265625  12.2727272727273 3.50911458333333  12.2727272727273 2.75  C 12.2727272727273 1.99088541666666  12.5390625 1.3427734375  13.0717329545455 0.8056640625  C 13.6044034090909 0.268554687500001  14.2471590909091 0  15 0  C 15.4971590909091 0  15.9588068181818 0.12890625  16.3849431818182 0.38671875  C 16.8110795454545 0.64453125  17.1448863636364 0.988281249999999  17.3863636363636 1.41796875  C 17.5284090909091 1.38932291666666  17.6420454545455 1.375  17.7272727272727 1.375  C 18.0965909090909 1.375  18.4161931818182 1.51106770833333  18.6860795454545 1.783203125  C 18.9559659090909 2.05533854166666  19.0909090909091 2.37760416666666  19 2.75  L 19 13.75  C 19.0909090909091 15.8125  18.3096590909091 17.6171875  16.7471590909091 19.1640625  C 15.1846590909091 20.7109375  13.2386363636364 21.6276041666667  10.9090909090909 21.9140625  L 10.9090909090909 24.75  C 10.9090909090909 26.2682291666667  11.5767045454545 27.564453125  12.9119318181818 28.638671875  C 14.2471590909091 29.712890625  15.8522727272727 30.25  17.7272727272727 30.25  C 19.6022727272727 30.25  21.2073863636364 29.712890625  22.5426136363636 28.638671875  C 23.8778409090909 27.564453125  24.5454545454545 26.2682291666667  24.5454545454545 24.75  L 24.5454545454545 16.263671875  C 23.7357954545455 15.962890625  23.0788352272727 15.4615885416667  22.5745738636364 14.759765625  C 22.0703125 14.0579427083333  21.8181818181818 13.2630208333333  21.8181818181818 12.375  C 21.8181818181818 11.2291666666667  22.2159090909091 10.2552083333333  23.0113636363636 9.453125  C 23.8068181818182 8.65104166666666  24.7727272727273 8.25  25.9090909090909 8.25  C 27.0454545454545 8.25  28.0113636363636 8.65104166666666  28.8068181818182 9.453125  Z " fill-rule="nonzero" fill="#487cab" stroke="none" transform="matrix(1 0 0 1 168 286 )" />
  </g>
</svg>