<?xml version="1.0" encoding="utf-8"?>
<svg version="1.1" xmlns:xlink="http://www.w3.org/1999/xlink" width="26px" height="29px" xmlns="http://www.w3.org/2000/svg">
  <g transform="matrix(1 0 0 1 -170 -286 )">
    <path d="M 6.74005681818182 22.1087239583333  C 6.97395833333333 22.3478732638889  7.09090909090909 22.6310763888889  7.09090909090909 22.9583333333333  C 7.09090909090909 23.2855902777778  6.97395833333333 23.5687934027778  6.74005681818182 23.8079427083333  C 6.5061553030303 24.0470920138889  6.22916666666667 24.1666666666667  5.90909090909091 24.1666666666667  C 5.58901515151515 24.1666666666667  5.31202651515152 24.0470920138889  5.078125 23.8079427083333  C 4.84422348484849 23.5687934027778  4.72727272727273 23.2855902777778  4.72727272727273 22.9583333333333  C 4.72727272727273 22.6310763888889  4.84422348484849 22.3478732638889  5.078125 22.1087239583333  C 5.31202651515152 21.8695746527778  5.58901515151515 21.75  5.90909090909091 21.75  C 6.22916666666667 21.75  6.5061553030303 21.8695746527778  6.74005681818182 22.1087239583333  Z M 25.8984375 21.63671875  C 25.9661458333333 22.4296875  26 23.2541232638889  26 24.1100260416667  C 26 25.6330295138889  25.5506628787879 26.8287760416667  24.6519886363636 27.697265625  C 23.7533143939394 28.5657552083333  22.5591856060606 29  21.0696022727273 29  L 4.93039772727273 29  C 3.44081439393939 29  2.24668560606061 28.5657552083333  1.34801136363636 27.697265625  C 0.449337121212121 26.8287760416667  0 25.6330295138889  0 24.1100260416667  C 0 23.2541232638889  0.0338541666666667 22.4296875  0.1015625 21.63671875  C 0.169270833333333 20.84375  0.316998106060606 19.9752604166667  0.544744318181818 19.03125  C 0.77249053030303 18.0872395833333  1.06486742424242 17.2533637152778  1.421875 16.5296223958333  C 1.77888257575758 15.8058810763889  2.27746212121212 15.1576605902778  2.91761363636364 14.5849609375  C 3.55776515151515 14.0122612847222  4.29640151515152 13.6315104166667  5.13352272727273 13.4427083333333  C 4.86268939393939 14.0972222222222  4.72727272727273 14.8524305555556  4.72727272727273 15.7083333333333  L 4.72727272727273 19.541015625  C 4.01325757575758 19.7927517361111  3.44081439393939 20.2332899305556  3.00994318181818 20.8626302083333  C 2.57907196969697 21.4919704861111  2.36363636363636 22.1905381944444  2.36363636363636 22.9583333333333  C 2.36363636363636 23.9652777777778  2.70833333333333 24.8211805555556  3.39772727272727 25.5260416666667  C 4.08712121212121 26.2309027777778  4.92424242424242 26.5833333333333  5.90909090909091 26.5833333333333  C 6.8939393939394 26.5833333333333  7.73106060606061 26.2309027777778  8.42045454545455 25.5260416666667  C 9.10984848484849 24.8211805555556  9.45454545454546 23.9652777777778  9.45454545454546 22.9583333333333  C 9.45454545454546 22.1905381944444  9.2360321969697 21.4919704861111  8.79900568181818 20.8626302083333  C 8.36197916666667 20.2332899305556  7.79261363636364 19.7927517361111  7.09090909090909 19.541015625  L 7.09090909090909 15.7083333333333  C 7.09090909090909 14.9279513888889  7.24479166666667 14.3426649305556  7.55255681818182 13.9524739583333  C 9.17755681818182 15.2615017361111  10.9933712121212 15.916015625  13 15.916015625  C 15.0066287878788 15.916015625  16.8224431818182 15.2615017361111  18.4474431818182 13.9524739583333  C 18.7552083333333 14.3426649305556  18.9090909090909 14.9279513888889  18.9090909090909 15.7083333333333  L 18.9090909090909 16.9166666666667  C 17.6041666666667 16.9166666666667  16.4900568181818 17.388671875  15.5667613636364 18.3326822916667  C 14.6434659090909 19.2766927083333  14.1818181818182 20.4157986111111  14.1818181818182 21.75  L 14.1818181818182 23.4303385416667  C 13.7878787878788 23.7953559027778  13.5909090909091 24.2421875  13.5909090909091 24.7708333333333  C 13.5909090909091 25.2743055555556  13.7632575757576 25.7022569444444  14.1079545454545 26.0546875  C 14.4526515151515 26.4071180555556  14.8712121212121 26.5833333333333  15.3636363636364 26.5833333333333  C 15.8560606060606 26.5833333333333  16.2746212121212 26.4071180555556  16.6193181818182 26.0546875  C 16.9640151515152 25.7022569444444  17.1363636363636 25.2743055555556  17.1363636363636 24.7708333333333  C 17.1363636363636 24.2421875  16.9393939393939 23.7953559027778  16.5454545454545 23.4303385416667  L 16.5454545454545 21.75  C 16.5454545454545 21.0954861111111  16.7793560606061 20.5290798611111  17.2471590909091 20.05078125  C 17.7149621212121 19.5724826388889  18.2689393939394 19.3333333333333  18.9090909090909 19.3333333333333  C 19.5492424242424 19.3333333333333  20.1032196969697 19.5724826388889  20.5710227272727 20.05078125  C 21.0388257575758 20.5290798611111  21.2727272727273 21.0954861111111  21.2727272727273 21.75  L 21.2727272727273 23.4303385416667  C 20.8787878787879 23.7953559027778  20.6818181818182 24.2421875  20.6818181818182 24.7708333333333  C 20.6818181818182 25.2743055555556  20.8541666666667 25.7022569444444  21.1988636363636 26.0546875  C 21.5435606060606 26.4071180555556  21.9621212121212 26.5833333333333  22.4545454545455 26.5833333333333  C 22.9469696969697 26.5833333333333  23.3655303030303 26.4071180555556  23.7102272727273 26.0546875  C 24.0549242424242 25.7022569444444  24.2272727272727 25.2743055555556  24.2272727272727 24.7708333333333  C 24.2272727272727 24.2421875  24.030303030303 23.7953559027778  23.6363636363636 23.4303385416667  L 23.6363636363636 21.75  C 23.6363636363636 20.8940972222222  23.4240056818182 20.0916883680556  22.9992897727273 19.3427734375  C 22.5745738636364 18.5938585069444  21.999053030303 18.0054253472222  21.2727272727273 17.5774739583333  C 21.2727272727273 17.4516059027778  21.2758049242424 17.1841362847222  21.2819602272727 16.7750651041667  C 21.288115530303 16.3659939236111  21.288115530303 16.0639105902778  21.2819602272727 15.8688151041667  C 21.2758049242424 15.6737196180556  21.2604166666667 15.4125434027778  21.2357954545455 15.0852864583333  C 21.2111742424242 14.7580295138889  21.1680871212121 14.4622395833333  21.1065340909091 14.1979166666667  C 21.0449810606061 13.93359375  20.9649621212121 13.6818576388889  20.8664772727273 13.4427083333333  C 21.7035984848485 13.6315104166667  22.4422348484849 14.0122612847222  23.0823863636364 14.5849609375  C 23.7225378787879 15.1576605902778  24.2211174242424 15.8058810763889  24.578125 16.5296223958333  C 24.9351325757576 17.2533637152778  25.227509469697 18.0872395833333  25.4552556818182 19.03125  C 25.6830018939394 19.9752604166667  25.8307291666667 20.84375  25.8984375 21.63671875  Z M 18.0134943181818 2.1240234375  C 19.3984375 3.5400390625  20.0909090909091 5.24869791666667  20.0909090909091 7.25  C 20.0909090909091 9.25130208333333  19.3984375 10.9599609375  18.0134943181818 12.3759765625  C 16.6285511363636 13.7919921875  14.9573863636364 14.5  13 14.5  C 11.0426136363636 14.5  9.37144886363636 13.7919921875  7.98650568181818 12.3759765625  C 6.6015625 10.9599609375  5.90909090909091 9.25130208333333  5.90909090909091 7.25  C 5.90909090909091 5.24869791666667  6.6015625 3.5400390625  7.98650568181818 2.1240234375  C 9.37144886363636 0.7080078125  11.0426136363636 0  13 0  C 14.9573863636364 0  16.6285511363636 0.7080078125  18.0134943181818 2.1240234375  Z " fill-rule="nonzero" fill="#487cab" stroke="none" transform="matrix(1 0 0 1 170 286 )" />
  </g>
</svg>