<?xml version="1.0" encoding="utf-8"?>
<svg version="1.1" xmlns:xlink="http://www.w3.org/1999/xlink" width="22px" height="10px" xmlns="http://www.w3.org/2000/svg">
  <g transform="matrix(1 0 0 1 -481 -220 )">
    <path d="M 2.44444444444446 2  L 18.3333333333333 2  L 18.3333333333333 8  L 2.44444444444446 8  L 2.44444444444446 2  Z M 19.5555555555555 8.75  L 19.5555555555555 6.5  L 20.7777777777778 6.5  L 20.7777777777778 3.5  L 19.5555555555555 3.5  L 19.5555555555555 1.25  C 19.5555555555555 1.17708333333334  19.5269097222222 1.1171875  19.4696180555555 1.0703125  C 19.4123263888889 1.0234375  19.3391203703704 1  19.25 1  L 1.52777777777777 1  C 1.43865740740739 1  1.36545138888891 1.0234375  1.30815972222223 1.0703125  C 1.25086805555554 1.1171875  1.22222222222223 1.17708333333334  1.22222222222223 1.25  L 1.22222222222223 8.75  C 1.22222222222223 8.82291666666666  1.25086805555554 8.8828125  1.30815972222223 8.9296875  C 1.36545138888891 8.9765625  1.43865740740739 9  1.52777777777777 9  L 19.25 9  C 19.3391203703704 9  19.4123263888889 8.9765625  19.4696180555555 8.9296875  C 19.5269097222222 8.8828125  19.5555555555555 8.82291666666666  19.5555555555555 8.75  Z M 21.6419270833333 2.79296875  C 21.8806423611111 2.98828125  22 3.22395833333333  22 3.5  L 22 6.5  C 22 6.77604166666667  21.8806423611111 7.01171875  21.6419270833333 7.20703125  C 21.4032118055555 7.40234375  21.1151620370371 7.5  20.7777777777778 7.5  L 20.7777777777778 8.75  C 20.7777777777778 9.09375  20.6281828703704 9.38802083333334  20.3289930555555 9.6328125  C 20.0298032407408 9.87760416666666  19.6701388888889 10  19.25 10  L 1.52777777777777 10  C 1.10763888888891 10  0.74797453703701 9.87760416666666  0.448784722222229 9.6328125  C 0.149594907407391 9.38802083333334  0 9.09375  0 8.75  L 0 1.25  C 0 0.90625  0.149594907407391 0.611979166666664  0.448784722222229 0.3671875  C 0.74797453703701 0.122395833333336  1.10763888888891 0  1.52777777777777 0  L 19.25 0  C 19.6701388888889 0  20.0298032407408 0.122395833333336  20.3289930555555 0.3671875  C 20.6281828703704 0.611979166666664  20.7777777777778 0.90625  20.7777777777778 1.25  L 20.7777777777778 2.5  C 21.1151620370371 2.5  21.4032118055555 2.59765625  21.6419270833333 2.79296875  Z " fill-rule="nonzero" fill="#000000" stroke="none" transform="matrix(1 0 0 1 481 220 )" />
  </g>
</svg>