<?xml version="1.0" encoding="utf-8"?>
<svg version="1.1" xmlns:xlink="http://www.w3.org/1999/xlink" width="5px" height="5px" xmlns="http://www.w3.org/2000/svg">
  <g transform="matrix(1 0 0 1 -171 -223 )">
    <path d="M 173.5 223  C 174.9 223  176 224.1  176 225.5  C 176 226.9  174.9 228  173.5 228  C 172.1 228  171 226.9  171 225.5  C 171 224.1  172.1 223  173.5 223  Z " fill-rule="nonzero" fill="#ffffff" stroke="none" fill-opacity="0" />
    <path d="M 173.5 223.5  C 174.62 223.5  175.5 224.38  175.5 225.5  C 175.5 226.62  174.62 227.5  173.5 227.5  C 172.38 227.5  171.5 226.62  171.5 225.5  C 171.5 224.38  172.38 223.5  173.5 223.5  Z " stroke-width="1" stroke="#000000" fill="none" />
  </g>
</svg>