<?xml version="1.0" encoding="utf-8"?>
<svg version="1.1" xmlns:xlink="http://www.w3.org/1999/xlink" width="14px" height="10px" xmlns="http://www.w3.org/2000/svg">
  <g transform="matrix(1 0 0 1 -224 -220 )">
    <path d="M 7.66293279022403 9.47311827956989  C 7.31602172437204 9.82437275985663  7.09504412763069 10  7 10  C 6.90495587236931 10  6.68397827562796 9.82437275985663  6.33706720977597 9.47311827956989  C 5.99015614392397 9.12186379928315  5.81670061099797 8.89844683393071  5.81670061099797 8.80286738351254  C 5.81670061099797 8.64994026284349  5.96520706042091 8.52090800477897  6.2622199592668 8.415770609319  C 6.55923285811269 8.31063321385903  6.8051595383571 8.25806451612903  7 8.25806451612903  C 7.1948404616429 8.25806451612903  7.44076714188731 8.31063321385903  7.7377800407332 8.415770609319  C 8.03479293957909 8.52090800477897  8.18329938900203 8.64994026284349  8.18329938900203 8.80286738351254  C 8.18329938900203 8.89844683393071  8.00984385607603 9.12186379928315  7.66293279022403 9.47311827956989  Z M 9.59114052953157 7.51971326164875  C 9.23234894772573 7.87813620071685  9.010183299389 8.05734767025089  8.92464358452139 8.05734767025089  C 8.91513917175831 8.05734767025089  8.82009504412763 7.99761051373955  8.63951120162933 7.87813620071685  C 8.45892735913102 7.75866188769415  8.21775288526815 7.63918757467144  7.91598778004074 7.51971326164875  C 7.61422267481331 7.40023894862605  7.30889341479973 7.3405017921147  7 7.3405017921147  C 6.69110658520027 7.3405017921147  6.38577732518669 7.40023894862605  6.08401221995926 7.51971326164875  C 5.78224711473185 7.63918757467144  5.54226069246435 7.75866188769415  5.36405295315681 7.87813620071685  C 5.18584521384929 7.99761051373955  5.08961303462321 8.05734767025089  5.07535641547861 8.05734767025089  C 4.989816700611 8.05734767025089  4.76765105227427 7.87813620071685  4.40885947046843 7.51971326164875  C 4.0500678886626 7.16129032258065  3.87067209775968 6.93906810035842  3.87067209775968 6.85304659498208  C 3.87067209775968 6.79091995221027  3.89443312966735 6.73596176821983  3.94195519348268 6.68817204301075  C 4.31262729124236 6.32019115890083  4.77834351663273 6.03106332138589  5.33910386965377 5.82078853046595  C 5.89986422267481 5.61051373954599  6.45349626612355 5.50537634408602  7 5.50537634408602  C 7.54650373387645 5.50537634408602  8.10013577732519 5.61051373954599  8.66089613034623 5.82078853046595  C 9.22165648336727 6.03106332138589  9.68737270875764 6.32019115890083  10.0580448065173 6.68817204301075  C 10.1055668703327 6.73596176821983  10.1293279022403 6.79091995221027  10.1293279022403 6.85304659498208  C 10.1293279022403 6.93906810035842  9.9499321113374 7.16129032258065  9.59114052953157 7.51971326164875  Z M 11.5264765784114 5.56989247311827  C 11.1700610997963 5.92831541218638  10.9514596062458 6.10752688172043  10.8706720977597 6.10752688172043  C 10.8183978275628 6.10752688172043  10.7637474541752 6.0884109916368  10.7067209775967 6.05017921146953  C 10.0604209097081 5.54838709677419  9.46164290563476 5.17921146953405  8.91038696537677 4.9426523297491  C 8.3591310251188 4.70609318996416  7.72233536999322 4.58781362007168  7 4.58781362007168  C 6.59606245756959 4.58781362007168  6.1909368635438 4.64038231780167  5.78462321792261 4.74551971326165  C 5.37830957230142 4.85065710872163  5.02427019687713 4.97729988052568  4.72250509164968 5.12544802867384  C 4.42073998642226 5.27359617682199  4.1510522742702 5.42174432497013  3.91344195519348 5.56989247311827  C 3.67583163611677 5.71804062126643  3.48811948404617 5.84468339307049  3.35030549898167 5.94982078853047  C 3.21249151391719 6.05495818399044  3.1388323150034 6.10752688172043  3.12932790224032 6.10752688172043  C 3.04854039375424 6.10752688172043  2.82993890020367 5.92831541218638  2.4735234215886 5.56989247311827  C 2.11710794297352 5.21146953405017  1.93890020366598 4.98924731182796  1.93890020366598 4.90322580645162  C 1.93890020366598 4.84587813620072  1.96266123557366 4.79330943847073  2.010183299389 4.74551971326165  C 2.63747454175153 4.11469534050179  3.39782756279702 3.62485065710872  4.29124236252545 3.27598566308244  C 5.18465716225391 2.92712066905616  6.08757637474541 2.75268817204301  7 2.75268817204301  C 7.91242362525459 2.75268817204301  8.81534283774609 2.92712066905616  9.70875763747455 3.27598566308244  C 10.602172437203 3.62485065710872  11.3625254582485 4.11469534050179  11.989816700611 4.74551971326165  C 12.0373387644263 4.79330943847073  12.061099796334 4.84587813620072  12.061099796334 4.90322580645162  C 12.061099796334 4.98924731182796  11.8828920570265 5.21146953405017  11.5264765784114 5.56989247311827  Z M 13.4618126272913 3.62724014336918  C 13.1030210454854 3.98566308243728  12.8832315003394 4.16487455197133  12.8024439918534 4.16487455197133  C 12.7501697216565 4.16487455197133  12.6978954514596 4.14336917562724  12.6456211812627 4.10035842293907  C 11.7949762389681 3.35005973715651  10.9122539035981 2.78494623655914  9.99745417515275 2.40501792114696  C 9.08265444670741 2.02508960573476  8.08350305498982 1.83512544802867  7 1.83512544802867  C 5.91649694501018 1.83512544802867  4.91734555329259 2.02508960573476  4.00254582484725 2.40501792114696  C 3.0877460964019 2.78494623655914  2.20502376103191 3.35005973715651  1.35437881873727 4.10035842293907  C 1.3021045485404 4.14336917562724  1.24983027834351 4.16487455197133  1.19755600814663 4.16487455197133  C 1.11676849966057 4.16487455197133  0.896978954514594 3.98566308243728  0.538187372708762 3.62724014336918  C 0.179395790902916 3.26881720430108  0 3.04659498207885  0 2.96057347670251  C 0 2.89844683393071  0.023761031907668 2.84348864994026  0.0712830957230182 2.79569892473118  C 0.959945689069926 1.90681003584229  2.01731160896131 1.21863799283154  3.24338085539715 0.731182795698928  C 4.46945010183299 0.243727598566309  5.72165648336727 0  7 0  C 8.27834351663273 0  9.53054989816701 0.243727598566309  10.7566191446029 0.731182795698928  C 11.9826883910387 1.21863799283154  13.0400543109301 1.90681003584229  13.928716904277 2.79569892473118  C 13.9762389680923 2.84348864994026  14 2.89844683393071  14 2.96057347670251  C 14 3.04659498207885  13.8206042090971 3.26881720430108  13.4618126272913 3.62724014336918  Z " fill-rule="nonzero" fill="#000000" stroke="none" transform="matrix(1 0 0 1 224 220 )" />
  </g>
</svg>