<?xml version="1.0" encoding="utf-8"?>
<svg version="1.1" xmlns:xlink="http://www.w3.org/1999/xlink" width="30px" height="33px" xmlns="http://www.w3.org/2000/svg">
  <g transform="matrix(1 0 0 1 -174 -310 )">
    <path d="M 7.77698863636364 25.158203125  C 8.046875 25.4303385416667  8.18181818181818 25.7526041666667  8.18181818181818 26.125  C 8.18181818181818 26.4973958333333  8.046875 26.8196614583333  7.77698863636364 27.091796875  C 7.50710227272727 27.3639322916667  7.1875 27.5  6.81818181818182 27.5  C 6.44886363636364 27.5  6.12926136363636 27.3639322916667  5.859375 27.091796875  C 5.58948863636364 26.8196614583333  5.45454545454546 26.4973958333333  5.45454545454546 26.125  C 5.45454545454546 25.7526041666667  5.58948863636364 25.4303385416667  5.859375 25.158203125  C 6.12926136363636 24.8860677083333  6.44886363636364 24.75  6.81818181818182 24.75  C 7.1875 24.75  7.50710227272727 24.8860677083333  7.77698863636364 25.158203125  Z M 29.8828125 24.62109375  C 29.9609375 25.5234375  30 26.4615885416667  30 27.435546875  C 30 29.1686197916667  29.4815340909091 30.529296875  28.4446022727273 31.517578125  C 27.4076704545455 32.505859375  26.0298295454545 33  24.3110795454545 33  L 5.68892045454546 33  C 3.97017045454546 33  2.59232954545455 32.505859375  1.55539772727273 31.517578125  C 0.518465909090909 30.529296875  0 29.1686197916667  0 27.435546875  C 0 26.4615885416667  0.0390625 25.5234375  0.1171875 24.62109375  C 0.1953125 23.71875  0.365767045454545 22.73046875  0.628551136363636 21.65625  C 0.891335227272727 20.58203125  1.22869318181818 19.6331380208333  1.640625 18.8095703125  C 2.05255681818182 17.9860026041667  2.62784090909091 17.2483723958333  3.36647727272727 16.5966796875  C 4.10511363636364 15.9449869791667  4.95738636363636 15.51171875  5.92329545454546 15.296875  C 5.61079545454546 16.0416666666667  5.45454545454546 16.9010416666667  5.45454545454546 17.875  L 5.45454545454546 22.236328125  C 4.63068181818182 22.5227864583333  3.97017045454546 23.0240885416667  3.47301136363636 23.740234375  C 2.97585227272727 24.4563802083333  2.72727272727273 25.2513020833333  2.72727272727273 26.125  C 2.72727272727273 27.2708333333333  3.125 28.2447916666667  3.92045454545455 29.046875  C 4.71590909090909 29.8489583333333  5.68181818181818 30.25  6.81818181818182 30.25  C 7.95454545454546 30.25  8.92045454545455 29.8489583333333  9.71590909090909 29.046875  C 10.5113636363636 28.2447916666667  10.9090909090909 27.2708333333333  10.9090909090909 26.125  C 10.9090909090909 25.2513020833333  10.6569602272727 24.4563802083333  10.1526988636364 23.740234375  C 9.6484375 23.0240885416667  8.99147727272727 22.5227864583333  8.18181818181818 22.236328125  L 8.18181818181818 17.875  C 8.18181818181818 16.9869791666667  8.359375 16.3209635416667  8.71448863636364 15.876953125  C 10.5894886363636 17.3665364583333  12.6846590909091 18.111328125  15 18.111328125  C 17.3153409090909 18.111328125  19.4105113636364 17.3665364583333  21.2855113636364 15.876953125  C 21.640625 16.3209635416667  21.8181818181818 16.9869791666667  21.8181818181818 17.875  L 21.8181818181818 19.25  C 20.3125 19.25  19.0269886363636 19.787109375  17.9616477272727 20.861328125  C 16.8963068181818 21.935546875  16.3636363636364 23.2317708333333  16.3636363636364 24.75  L 16.3636363636364 26.662109375  C 15.9090909090909 27.0774739583333  15.6818181818182 27.5859375  15.6818181818182 28.1875  C 15.6818181818182 28.7604166666667  15.8806818181818 29.2473958333333  16.2784090909091 29.6484375  C 16.6761363636364 30.0494791666667  17.1590909090909 30.25  17.7272727272727 30.25  C 18.2954545454545 30.25  18.7784090909091 30.0494791666667  19.1761363636364 29.6484375  C 19.5738636363636 29.2473958333333  19.7727272727273 28.7604166666667  19.7727272727273 28.1875  C 19.7727272727273 27.5859375  19.5454545454545 27.0774739583333  19.0909090909091 26.662109375  L 19.0909090909091 24.75  C 19.0909090909091 24.0052083333333  19.3607954545455 23.3606770833333  19.9005681818182 22.81640625  C 20.4403409090909 22.2721354166667  21.0795454545455 22  21.8181818181818 22  C 22.5568181818182 22  23.1960227272727 22.2721354166667  23.7357954545455 22.81640625  C 24.2755681818182 23.3606770833333  24.5454545454545 24.0052083333333  24.5454545454545 24.75  L 24.5454545454545 26.662109375  C 24.0909090909091 27.0774739583333  23.8636363636364 27.5859375  23.8636363636364 28.1875  C 23.8636363636364 28.7604166666667  24.0625 29.2473958333333  24.4602272727273 29.6484375  C 24.8579545454545 30.0494791666667  25.3409090909091 30.25  25.9090909090909 30.25  C 26.4772727272727 30.25  26.9602272727273 30.0494791666667  27.3579545454545 29.6484375  C 27.7556818181818 29.2473958333333  27.9545454545455 28.7604166666667  27.9545454545455 28.1875  C 27.9545454545455 27.5859375  27.7272727272727 27.0774739583333  27.2727272727273 26.662109375  L 27.2727272727273 24.75  C 27.2727272727273 23.7760416666667  27.0276988636364 22.8629557291667  26.5376420454545 22.0107421875  C 26.0475852272727 21.1585286458333  25.3835227272727 20.4889322916667  24.5454545454545 20.001953125  C 24.5454545454545 19.8587239583333  24.5490056818182 19.5543619791667  24.5561079545455 19.0888671875  C 24.5632102272727 18.6233723958333  24.5632102272727 18.2796223958333  24.5561079545455 18.0576171875  C 24.5490056818182 17.8356119791667  24.53125 17.5384114583333  24.5028409090909 17.166015625  C 24.4744318181818 16.7936197916667  24.4247159090909 16.45703125  24.3536931818182 16.15625  C 24.2826704545455 15.85546875  24.1903409090909 15.5690104166667  24.0767045454545 15.296875  C 25.0426136363636 15.51171875  25.8948863636364 15.9449869791667  26.6335227272727 16.5966796875  C 27.3721590909091 17.2483723958333  27.9474431818182 17.9860026041667  28.359375 18.8095703125  C 28.7713068181818 19.6331380208333  29.1086647727273 20.58203125  29.3714488636364 21.65625  C 29.6342329545455 22.73046875  29.8046875 23.71875  29.8828125 24.62109375  Z M 20.7848011363636 2.4169921875  C 22.3828125 4.0283203125  23.1818181818182 5.97265625  23.1818181818182 8.25  C 23.1818181818182 10.52734375  22.3828125 12.4716796875  20.7848011363636 14.0830078125  C 19.1867897727273 15.6943359375  17.2585227272727 16.5  15 16.5  C 12.7414772727273 16.5  10.8132102272727 15.6943359375  9.21519886363636 14.0830078125  C 7.6171875 12.4716796875  6.81818181818182 10.52734375  6.81818181818182 8.25  C 6.81818181818182 5.97265625  7.6171875 4.0283203125  9.21519886363636 2.4169921875  C 10.8132102272727 0.8056640625  12.7414772727273 0  15 0  C 17.2585227272727 0  19.1867897727273 0.8056640625  20.7848011363636 2.4169921875  Z " fill-rule="nonzero" fill="#487cab" stroke="none" transform="matrix(1 0 0 1 174 310 )" />
  </g>
</svg>