<?xml version="1.0" encoding="utf-8"?>
<svg version="1.1" xmlns:xlink="http://www.w3.org/1999/xlink" width="26px" height="33px" xmlns="http://www.w3.org/2000/svg">
  <g transform="matrix(1 0 0 1 -170 -286 )">
    <path d="M 6.91548295454546 23.7463727678571  C 7.03243371212121 23.8630022321429  7.09090909090909 24.0011160714286  7.09090909090909 24.1607142857143  L 7.09090909090909 25.3392857142857  C 7.09090909090909 25.4988839285714  7.03243371212121 25.6369977678571  6.91548295454546 25.7536272321429  C 6.7985321969697 25.8702566964286  6.66003787878788 25.9285714285714  6.5 25.9285714285714  L 5.31818181818182 25.9285714285714  C 5.15814393939394 25.9285714285714  5.01964962121212 25.8702566964286  4.90269886363636 25.7536272321429  C 4.78574810606061 25.6369977678571  4.72727272727273 25.4988839285714  4.72727272727273 25.3392857142857  L 4.72727272727273 24.1607142857143  C 4.72727272727273 24.0011160714286  4.78574810606061 23.8630022321429  4.90269886363636 23.7463727678571  C 5.01964962121212 23.6297433035714  5.15814393939394 23.5714285714286  5.31818181818182 23.5714285714286  L 6.5 23.5714285714286  C 6.66003787878788 23.5714285714286  6.7985321969697 23.6297433035714  6.91548295454546 23.7463727678571  Z M 6.91548295454546 19.0320870535714  C 7.03243371212121 19.1487165178571  7.09090909090909 19.2868303571429  7.09090909090909 19.4464285714286  L 7.09090909090909 20.625  C 7.09090909090909 20.7845982142857  7.03243371212121 20.9227120535714  6.91548295454546 21.0393415178571  C 6.7985321969697 21.1559709821429  6.66003787878788 21.2142857142857  6.5 21.2142857142857  L 5.31818181818182 21.2142857142857  C 5.15814393939394 21.2142857142857  5.01964962121212 21.1559709821429  4.90269886363636 21.0393415178571  C 4.78574810606061 20.9227120535714  4.72727272727273 20.7845982142857  4.72727272727273 20.625  L 4.72727272727273 19.4464285714286  C 4.72727272727273 19.2868303571429  4.78574810606061 19.1487165178571  4.90269886363636 19.0320870535714  C 5.01964962121212 18.9154575892857  5.15814393939394 18.8571428571429  5.31818181818182 18.8571428571429  L 6.5 18.8571428571429  C 6.66003787878788 18.8571428571429  6.7985321969697 18.9154575892857  6.91548295454546 19.0320870535714  Z M 11.6427556818182 19.0320870535714  C 11.7597064393939 19.1487165178571  11.8181818181818 19.2868303571429  11.8181818181818 19.4464285714286  L 11.8181818181818 20.625  C 11.8181818181818 20.7845982142857  11.7597064393939 20.9227120535714  11.6427556818182 21.0393415178571  C 11.5258049242424 21.1559709821429  11.3873106060606 21.2142857142857  11.2272727272727 21.2142857142857  L 10.0454545454545 21.2142857142857  C 9.88541666666667 21.2142857142857  9.74692234848485 21.1559709821429  9.62997159090909 21.0393415178571  C 9.51302083333334 20.9227120535714  9.45454545454546 20.7845982142857  9.45454545454546 20.625  L 9.45454545454546 19.4464285714286  C 9.45454545454546 19.2868303571429  9.51302083333334 19.1487165178571  9.62997159090909 19.0320870535714  C 9.74692234848485 18.9154575892857  9.88541666666667 18.8571428571429  10.0454545454545 18.8571428571429  L 11.2272727272727 18.8571428571429  C 11.3873106060606 18.8571428571429  11.5258049242424 18.9154575892857  11.6427556818182 19.0320870535714  Z M 6.91548295454546 14.3178013392857  C 7.03243371212121 14.4344308035714  7.09090909090909 14.5725446428571  7.09090909090909 14.7321428571429  L 7.09090909090909 15.9107142857143  C 7.09090909090909 16.0703125  7.03243371212121 16.2084263392857  6.91548295454546 16.3250558035714  C 6.7985321969697 16.4416852678571  6.66003787878788 16.5  6.5 16.5  L 5.31818181818182 16.5  C 5.15814393939394 16.5  5.01964962121212 16.4416852678571  4.90269886363636 16.3250558035714  C 4.78574810606061 16.2084263392857  4.72727272727273 16.0703125  4.72727272727273 15.9107142857143  L 4.72727272727273 14.7321428571429  C 4.72727272727273 14.5725446428571  4.78574810606061 14.4344308035714  4.90269886363636 14.3178013392857  C 5.01964962121212 14.201171875  5.15814393939394 14.1428571428571  5.31818181818182 14.1428571428571  L 6.5 14.1428571428571  C 6.66003787878788 14.1428571428571  6.7985321969697 14.201171875  6.91548295454546 14.3178013392857  Z M 21.0973011363636 23.7463727678571  C 21.2142518939394 23.8630022321429  21.2727272727273 24.0011160714286  21.2727272727273 24.1607142857143  L 21.2727272727273 25.3392857142857  C 21.2727272727273 25.4988839285714  21.2142518939394 25.6369977678571  21.0973011363636 25.7536272321429  C 20.9803503787879 25.8702566964286  20.8418560606061 25.9285714285714  20.6818181818182 25.9285714285714  L 19.5 25.9285714285714  C 19.3399621212121 25.9285714285714  19.2014678030303 25.8702566964286  19.0845170454545 25.7536272321429  C 18.9675662878788 25.6369977678571  18.9090909090909 25.4988839285714  18.9090909090909 25.3392857142857  L 18.9090909090909 24.1607142857143  C 18.9090909090909 24.0011160714286  18.9675662878788 23.8630022321429  19.0845170454545 23.7463727678571  C 19.2014678030303 23.6297433035714  19.3399621212121 23.5714285714286  19.5 23.5714285714286  L 20.6818181818182 23.5714285714286  C 20.8418560606061 23.5714285714286  20.9803503787879 23.6297433035714  21.0973011363636 23.7463727678571  Z M 16.3700284090909 19.0320870535714  C 16.4869791666667 19.1487165178571  16.5454545454545 19.2868303571429  16.5454545454545 19.4464285714286  L 16.5454545454545 20.625  C 16.5454545454545 20.7845982142857  16.4869791666667 20.9227120535714  16.3700284090909 21.0393415178571  C 16.2530776515152 21.1559709821429  16.1145833333333 21.2142857142857  15.9545454545455 21.2142857142857  L 14.7727272727273 21.2142857142857  C 14.6126893939394 21.2142857142857  14.4741950757576 21.1559709821429  14.3572443181818 21.0393415178571  C 14.2402935606061 20.9227120535714  14.1818181818182 20.7845982142857  14.1818181818182 20.625  L 14.1818181818182 19.4464285714286  C 14.1818181818182 19.2868303571429  14.2402935606061 19.1487165178571  14.3572443181818 19.0320870535714  C 14.4741950757576 18.9154575892857  14.6126893939394 18.8571428571429  14.7727272727273 18.8571428571429  L 15.9545454545455 18.8571428571429  C 16.1145833333333 18.8571428571429  16.2530776515152 18.9154575892857  16.3700284090909 19.0320870535714  Z M 11.6427556818182 14.3178013392857  C 11.7597064393939 14.4344308035714  11.8181818181818 14.5725446428571  11.8181818181818 14.7321428571429  L 11.8181818181818 15.9107142857143  C 11.8181818181818 16.0703125  11.7597064393939 16.2084263392857  11.6427556818182 16.3250558035714  C 11.5258049242424 16.4416852678571  11.3873106060606 16.5  11.2272727272727 16.5  L 10.0454545454545 16.5  C 9.88541666666667 16.5  9.74692234848485 16.4416852678571  9.62997159090909 16.3250558035714  C 9.51302083333334 16.2084263392857  9.45454545454546 16.0703125  9.45454545454546 15.9107142857143  L 9.45454545454546 14.7321428571429  C 9.45454545454546 14.5725446428571  9.51302083333334 14.4344308035714  9.62997159090909 14.3178013392857  C 9.74692234848485 14.201171875  9.88541666666667 14.1428571428571  10.0454545454545 14.1428571428571  L 11.2272727272727 14.1428571428571  C 11.3873106060606 14.1428571428571  11.5258049242424 14.201171875  11.6427556818182 14.3178013392857  Z M 21.0973011363636 19.0320870535714  C 21.2142518939394 19.1487165178571  21.2727272727273 19.2868303571429  21.2727272727273 19.4464285714286  L 21.2727272727273 20.625  C 21.2727272727273 20.7845982142857  21.2142518939394 20.9227120535714  21.0973011363636 21.0393415178571  C 20.9803503787879 21.1559709821429  20.8418560606061 21.2142857142857  20.6818181818182 21.2142857142857  L 19.5 21.2142857142857  C 19.3399621212121 21.2142857142857  19.2014678030303 21.1559709821429  19.0845170454545 21.0393415178571  C 18.9675662878788 20.9227120535714  18.9090909090909 20.7845982142857  18.9090909090909 20.625  L 18.9090909090909 19.4464285714286  C 18.9090909090909 19.2868303571429  18.9675662878788 19.1487165178571  19.0845170454545 19.0320870535714  C 19.2014678030303 18.9154575892857  19.3399621212121 18.8571428571429  19.5 18.8571428571429  L 20.6818181818182 18.8571428571429  C 20.8418560606061 18.8571428571429  20.9803503787879 18.9154575892857  21.0973011363636 19.0320870535714  Z M 16.3700284090909 14.3178013392857  C 16.4869791666667 14.4344308035714  16.5454545454545 14.5725446428571  16.5454545454545 14.7321428571429  L 16.5454545454545 15.9107142857143  C 16.5454545454545 16.0703125  16.4869791666667 16.2084263392857  16.3700284090909 16.3250558035714  C 16.2530776515152 16.4416852678571  16.1145833333333 16.5  15.9545454545455 16.5  L 14.7727272727273 16.5  C 14.6126893939394 16.5  14.4741950757576 16.4416852678571  14.3572443181818 16.3250558035714  C 14.2402935606061 16.2084263392857  14.1818181818182 16.0703125  14.1818181818182 15.9107142857143  L 14.1818181818182 14.7321428571429  C 14.1818181818182 14.5725446428571  14.2402935606061 14.4344308035714  14.3572443181818 14.3178013392857  C 14.4741950757576 14.201171875  14.6126893939394 14.1428571428571  14.7727272727273 14.1428571428571  L 15.9545454545455 14.1428571428571  C 16.1145833333333 14.1428571428571  16.2530776515152 14.201171875  16.3700284090909 14.3178013392857  Z M 21.0973011363636 14.3178013392857  C 21.2142518939394 14.4344308035714  21.2727272727273 14.5725446428571  21.2727272727273 14.7321428571429  L 21.2727272727273 15.9107142857143  C 21.2727272727273 16.0703125  21.2142518939394 16.2084263392857  21.0973011363636 16.3250558035714  C 20.9803503787879 16.4416852678571  20.8418560606061 16.5  20.6818181818182 16.5  L 19.5 16.5  C 19.3399621212121 16.5  19.2014678030303 16.4416852678571  19.0845170454545 16.3250558035714  C 18.9675662878788 16.2084263392857  18.9090909090909 16.0703125  18.9090909090909 15.9107142857143  L 18.9090909090909 14.7321428571429  C 18.9090909090909 14.5725446428571  18.9675662878788 14.4344308035714  19.0845170454545 14.3178013392857  C 19.2014678030303 14.201171875  19.3399621212121 14.1428571428571  19.5 14.1428571428571  L 20.6818181818182 14.1428571428571  C 20.8418560606061 14.1428571428571  20.9803503787879 14.201171875  21.0973011363636 14.3178013392857  Z M 16.5454545454545 26.5178571428571  L 16.5454545454545 30.6428571428571  L 23.6363636363636 30.6428571428571  L 23.6363636363636 9.42857142857143  L 18.9090909090909 9.42857142857143  L 18.9090909090909 10.0178571428571  C 18.9090909090909 10.5089285714286  18.7367424242424 10.9263392857143  18.3920454545455 11.2700892857143  C 18.0473484848485 11.6138392857143  17.6287878787879 11.7857142857143  17.1363636363636 11.7857142857143  L 8.86363636363636 11.7857142857143  C 8.37121212121212 11.7857142857143  7.95265151515152 11.6138392857143  7.60795454545455 11.2700892857143  C 7.26325757575758 10.9263392857143  7.09090909090909 10.5089285714286  7.09090909090909 10.0178571428571  L 7.09090909090909 9.42857142857143  L 2.36363636363636 9.42857142857143  L 2.36363636363636 30.6428571428571  L 9.45454545454546 30.6428571428571  L 9.45454545454546 26.5178571428571  C 9.45454545454546 26.3582589285714  9.51302083333334 26.2201450892857  9.62997159090909 26.103515625  C 9.74692234848485 25.9868861607143  9.88541666666667 25.9285714285714  10.0454545454545 25.9285714285714  L 15.9545454545455 25.9285714285714  C 16.1145833333333 25.9285714285714  16.2530776515152 25.9868861607143  16.3700284090909 26.103515625  C 16.4869791666667 26.2201450892857  16.5454545454545 26.3582589285714  16.5454545454545 26.5178571428571  Z M 16.3700284090909 9.25362723214286  C 16.4869791666667 9.13699776785714  16.5454545454545 8.99888392857143  16.5454545454545 8.83928571428572  L 16.5454545454545 2.94642857142857  C 16.5454545454545 2.78683035714286  16.4869791666667 2.64871651785714  16.3700284090909 2.53208705357143  C 16.2530776515152 2.41545758928571  16.1145833333333 2.35714285714286  15.9545454545455 2.35714285714286  L 14.7727272727273 2.35714285714286  C 14.6126893939394 2.35714285714286  14.4741950757576 2.41545758928571  14.3572443181818 2.53208705357143  C 14.2402935606061 2.64871651785714  14.1818181818182 2.78683035714286  14.1818181818182 2.94642857142857  L 14.1818181818182 4.71428571428572  L 11.8181818181818 4.71428571428572  L 11.8181818181818 2.94642857142857  C 11.8181818181818 2.78683035714286  11.7597064393939 2.64871651785714  11.6427556818182 2.53208705357143  C 11.5258049242424 2.41545758928571  11.3873106060606 2.35714285714286  11.2272727272727 2.35714285714286  L 10.0454545454545 2.35714285714286  C 9.88541666666667 2.35714285714286  9.74692234848485 2.41545758928571  9.62997159090909 2.53208705357143  C 9.51302083333334 2.64871651785714  9.45454545454546 2.78683035714286  9.45454545454546 2.94642857142857  L 9.45454545454546 8.83928571428572  C 9.45454545454546 8.99888392857143  9.51302083333334 9.13699776785714  9.62997159090909 9.25362723214286  C 9.74692234848485 9.37025669642857  9.88541666666667 9.42857142857143  10.0454545454545 9.42857142857143  L 11.2272727272727 9.42857142857143  C 11.3873106060606 9.42857142857143  11.5258049242424 9.37025669642857  11.6427556818182 9.25362723214286  C 11.7597064393939 9.13699776785714  11.8181818181818 8.99888392857143  11.8181818181818 8.83928571428572  L 11.8181818181818 7.07142857142857  L 14.1818181818182 7.07142857142857  L 14.1818181818182 8.83928571428572  C 14.1818181818182 8.99888392857143  14.2402935606061 9.13699776785714  14.3572443181818 9.25362723214286  C 14.4741950757576 9.37025669642857  14.6126893939394 9.42857142857143  14.7727272727273 9.42857142857143  L 15.9545454545455 9.42857142857143  C 16.1145833333333 9.42857142857143  16.2530776515152 9.37025669642857  16.3700284090909 9.25362723214286  Z M 25.6491477272727 7.42131696428572  C 25.8830492424242 7.65457589285714  26 7.93080357142857  26 8.25  L 26 31.8214285714286  C 26 32.140625  25.8830492424242 32.4168526785714  25.6491477272727 32.6501116071429  C 25.4152462121212 32.8833705357143  25.1382575757576 33  24.8181818181818 33  L 1.18181818181818 33  C 0.861742424242424 33  0.584753787878788 32.8833705357143  0.350852272727273 32.6501116071429  C 0.116950757575758 32.4168526785714  0 32.140625  0 31.8214285714286  L 0 8.25  C 0 7.93080357142857  0.116950757575758 7.65457589285714  0.350852272727273 7.42131696428572  C 0.584753787878788 7.18805803571429  0.861742424242424 7.07142857142857  1.18181818181818 7.07142857142857  L 7.09090909090909 7.07142857142857  L 7.09090909090909 1.76785714285714  C 7.09090909090909 1.27678571428571  7.26325757575758 0.859374999999999  7.60795454545455 0.515625  C 7.95265151515152 0.171875000000001  8.37121212121212 0  8.86363636363636 0  L 17.1363636363636 0  C 17.6287878787879 0  18.0473484848485 0.171875000000001  18.3920454545455 0.515625  C 18.7367424242424 0.859374999999999  18.9090909090909 1.27678571428571  18.9090909090909 1.76785714285714  L 18.9090909090909 7.07142857142857  L 24.8181818181818 7.07142857142857  C 25.1382575757576 7.07142857142857  25.4152462121212 7.18805803571429  25.6491477272727 7.42131696428572  Z " fill-rule="nonzero" fill="#487cab" stroke="none" transform="matrix(1 0 0 1 170 286 )" />
  </g>
</svg>