<?xml version="1.0" encoding="utf-8"?>
<svg version="1.1" xmlns:xlink="http://www.w3.org/1999/xlink" width="42px" height="46px" xmlns="http://www.w3.org/2000/svg">
  <g transform="matrix(1 0 0 1 -214 -404 )">
    <path d="M 10.8877840909091 35.0690104166667  C 11.265625 35.4483506944445  11.4545454545455 35.8975694444445  11.4545454545455 36.4166666666667  C 11.4545454545455 36.9357638888889  11.265625 37.3849826388889  10.8877840909091 37.7643229166667  C 10.5099431818182 38.1436631944445  10.0625 38.3333333333333  9.54545454545455 38.3333333333333  C 9.02840909090909 38.3333333333333  8.58096590909091 38.1436631944445  8.203125 37.7643229166667  C 7.82528409090909 37.3849826388889  7.63636363636364 36.9357638888889  7.63636363636364 36.4166666666667  C 7.63636363636364 35.8975694444445  7.82528409090909 35.4483506944445  8.203125 35.0690104166667  C 8.58096590909091 34.6896701388889  9.02840909090909 34.5  9.54545454545455 34.5  C 10.0625 34.5  10.5099431818182 34.6896701388889  10.8877840909091 35.0690104166667  Z M 41.8359375 34.3203125  C 41.9453125 35.578125  42 36.8858506944445  42 38.2434895833333  C 42 40.6592881944445  41.2741477272727 42.5559895833333  39.8224431818182 43.93359375  C 38.3707386363636 45.3111979166667  36.4417613636364 46  34.0355113636364 46  L 7.96448863636364 46  C 5.55823863636364 46  3.62926136363636 45.3111979166667  2.17755681818182 43.93359375  C 0.725852272727273 42.5559895833333  0 40.6592881944445  0 38.2434895833333  C 0 36.8858506944445  0.0546875 35.578125  0.1640625 34.3203125  C 0.2734375 33.0625  0.512073863636364 31.6848958333333  0.879971590909091 30.1875  C 1.24786931818182 28.6901041666667  1.72017045454545 27.3674045138889  2.296875 26.2194010416667  C 2.87357954545455 25.0713975694444  3.67897727272727 24.0431857638889  4.71306818181818 23.134765625  C 5.74715909090909 22.2263454861111  6.94034090909091 21.6223958333333  8.29261363636364 21.3229166666667  C 7.85511363636364 22.3611111111111  7.63636363636364 23.5590277777778  7.63636363636364 24.9166666666667  L 7.63636363636364 30.99609375  C 6.48295454545455 31.3953993055556  5.55823863636364 32.0941840277778  4.86221590909091 33.0924479166667  C 4.16619318181818 34.0907118055556  3.81818181818182 35.1987847222222  3.81818181818182 36.4166666666667  C 3.81818181818182 38.0138888888889  4.375 39.3715277777778  5.48863636363636 40.4895833333333  C 6.60227272727273 41.6076388888889  7.95454545454546 42.1666666666667  9.54545454545455 42.1666666666667  C 11.1363636363636 42.1666666666667  12.4886363636364 41.6076388888889  13.6022727272727 40.4895833333333  C 14.7159090909091 39.3715277777778  15.2727272727273 38.0138888888889  15.2727272727273 36.4166666666667  C 15.2727272727273 35.1987847222222  14.9197443181818 34.0907118055556  14.2137784090909 33.0924479166667  C 13.5078125 32.0941840277778  12.5880681818182 31.3953993055556  11.4545454545455 30.99609375  L 11.4545454545455 24.9166666666667  C 11.4545454545455 23.6788194444444  11.703125 22.7504340277778  12.2002840909091 22.1315104166667  C 14.8252840909091 24.2078993055556  17.7585227272727 25.24609375  21 25.24609375  C 24.2414772727273 25.24609375  27.1747159090909 24.2078993055556  29.7997159090909 22.1315104166667  C 30.296875 22.7504340277778  30.5454545454545 23.6788194444444  30.5454545454545 24.9166666666667  L 30.5454545454545 26.8333333333333  C 28.4375 26.8333333333333  26.6377840909091 27.58203125  25.1463068181818 29.0794270833333  C 23.6548295454545 30.5768229166667  22.9090909090909 32.3836805555556  22.9090909090909 34.5  L 22.9090909090909 37.1653645833333  C 22.2727272727273 37.7443576388889  21.9545454545455 38.453125  21.9545454545455 39.2916666666667  C 21.9545454545455 40.0902777777778  22.2329545454545 40.7690972222222  22.7897727272727 41.328125  C 23.3465909090909 41.8871527777778  24.0227272727273 42.1666666666667  24.8181818181818 42.1666666666667  C 25.6136363636364 42.1666666666667  26.2897727272727 41.8871527777778  26.8465909090909 41.328125  C 27.4034090909091 40.7690972222222  27.6818181818182 40.0902777777778  27.6818181818182 39.2916666666667  C 27.6818181818182 38.453125  27.3636363636364 37.7443576388889  26.7272727272727 37.1653645833333  L 26.7272727272727 34.5  C 26.7272727272727 33.4618055555556  27.1051136363636 32.5633680555556  27.8607954545455 31.8046875  C 28.6164772727273 31.0460069444444  29.5113636363636 30.6666666666667  30.5454545454545 30.6666666666667  C 31.5795454545455 30.6666666666667  32.4744318181818 31.0460069444444  33.2301136363636 31.8046875  C 33.9857954545455 32.5633680555556  34.3636363636364 33.4618055555556  34.3636363636364 34.5  L 34.3636363636364 37.1653645833333  C 33.7272727272727 37.7443576388889  33.4090909090909 38.453125  33.4090909090909 39.2916666666667  C 33.4090909090909 40.0902777777778  33.6875 40.7690972222222  34.2443181818182 41.328125  C 34.8011363636364 41.8871527777778  35.4772727272727 42.1666666666667  36.2727272727273 42.1666666666667  C 37.0681818181818 42.1666666666667  37.7443181818182 41.8871527777778  38.3011363636364 41.328125  C 38.8579545454545 40.7690972222222  39.1363636363636 40.0902777777778  39.1363636363636 39.2916666666667  C 39.1363636363636 38.453125  38.8181818181818 37.7443576388889  38.1818181818182 37.1653645833333  L 38.1818181818182 34.5  C 38.1818181818182 33.1423611111111  37.8387784090909 31.8695746527778  37.1526988636364 30.681640625  C 36.4666193181818 29.4937065972222  35.5369318181818 28.5603298611111  34.3636363636364 27.8815104166667  C 34.3636363636364 27.6818576388889  34.3686079545455 27.2575954861111  34.3785511363636 26.6087239583333  C 34.3884943181818 25.9598524305556  34.3884943181818 25.4806857638889  34.3785511363636 25.1712239583333  C 34.3686079545455 24.8617621527778  34.34375 24.4474826388889  34.3039772727273 23.9283854166667  C 34.2642045454545 23.4092881944444  34.1946022727273 22.9401041666667  34.0951704545455 22.5208333333333  C 33.9957386363636 22.1015625  33.8664772727273 21.7022569444444  33.7073863636364 21.3229166666667  C 35.0596590909091 21.6223958333333  36.2528409090909 22.2263454861111  37.2869318181818 23.134765625  C 38.3210227272727 24.0431857638889  39.1264204545455 25.0713975694444  39.703125 26.2194010416667  C 40.2798295454545 27.3674045138889  40.7521306818182 28.6901041666667  41.1200284090909 30.1875  C 41.4879261363636 31.6848958333333  41.7265625 33.0625  41.8359375 34.3203125  Z M 29.0987215909091 3.369140625  C 31.3359375 5.615234375  32.4545454545455 8.32552083333334  32.4545454545455 11.5  C 32.4545454545455 14.6744791666667  31.3359375 17.384765625  29.0987215909091 19.630859375  C 26.8615056818182 21.876953125  24.1619318181818 23  21 23  C 17.8380681818182 23  15.1384943181818 21.876953125  12.9012784090909 19.630859375  C 10.6640625 17.384765625  9.54545454545455 14.6744791666667  9.54545454545455 11.5  C 9.54545454545455 8.32552083333334  10.6640625 5.615234375  12.9012784090909 3.369140625  C 15.1384943181818 1.123046875  17.8380681818182 0  21 0  C 24.1619318181818 0  26.8615056818182 1.123046875  29.0987215909091 3.369140625  Z " fill-rule="nonzero" fill="#ffffff" stroke="none" transform="matrix(1 0 0 1 214 404 )" />
  </g>
</svg>