<?xml version="1.0" encoding="utf-8"?>
<svg version="1.1" xmlns:xlink="http://www.w3.org/1999/xlink" width="44px" height="40px" xmlns="http://www.w3.org/2000/svg">
  <g transform="matrix(1 0 0 1 -213 -737 )">
    <path d="M 41.7551020408163 7.99479166666667  C 42.4241696678672 8.25520833333334  42.9435774309724 8.62847222222222  43.3133253301321 9.11458333333334  C 44.0176070428171 10.1041666666667  44.1760704281713 11.2239583333333  43.7887154861945 12.4739583333333  L 36.5258103241297 36.0677083333333  C 36.1912765106042 37.1788194444444  35.5178071228491 38.1119791666667  34.5054021608644 38.8671875  C 33.4929971988796 39.6223958333333  32.4145658263305 40  31.2701080432173 40  L 6.89315726290516 40  C 5.53741496598639 40  4.23009203681473 39.5355902777778  2.97118847539016 38.6067708333333  C 1.71228491396559 37.6779513888889  0.836334533813526 36.5364583333333  0.343337334933974 35.1822916666667  C -0.0792316926770708 34.0190972222222  -0.0968387354941977 32.9166666666667  0.290516206482593 31.875  C 0.290516206482593 31.8055555555556  0.316926770708283 31.5711805555556  0.369747899159664 31.171875  C 0.422569027611044 30.7725694444444  0.457783113245298 30.4513888888889  0.475390156062425 30.2083333333333  C 0.492997198879552 30.0694444444444  0.466586634653862 29.8828125  0.396158463385354 29.6484375  C 0.325730292116847 29.4140625  0.299319727891156 29.2447916666667  0.316926770708283 29.140625  C 0.352140856342537 28.9496527777778  0.422569027611044 28.7673611111111  0.528211284513806 28.59375  C 0.633853541416567 28.4201388888889  0.779111644657863 28.2161458333333  0.963985594237695 27.9817708333333  C 1.14885954381753 27.7473958333333  1.29411764705882 27.5434027777778  1.39975990396158 27.3697916666667  C 1.8047218887555 26.7100694444444  2.20088035214086 25.9157986111111  2.58823529411765 24.9869791666667  C 2.97559023609444 24.0581597222222  3.23969587835134 23.2638888888889  3.38055222088835 22.6041666666667  C 3.43337334933974 22.4305555555556  3.43777511004402 22.1701388888889  3.3937575030012 21.8229166666667  C 3.34973989595838 21.4756944444444  3.3453381352541 21.2326388888889  3.38055222088835 21.09375  C 3.43337334933974 20.9027777777778  3.58303321328531 20.6597222222222  3.82953181272509 20.3645833333333  C 4.07603041216487 20.0694444444444  4.22569027611044 19.8697916666667  4.27851140456182 19.765625  C 4.64825930372149 19.140625  5.01800720288115 18.3420138888889  5.38775510204082 17.3697916666667  C 5.75750300120048 16.3975694444444  5.97759103641457 15.6163194444444  6.04801920768307 15.0260416666667  C 6.0656262505002 14.8697916666667  6.04361744697879 14.5920138888889  5.98199279711885 14.1927083333333  C 5.9203681472589 13.7934027777778  5.92476990796319 13.5503472222222  5.99519807923169 13.4635416666667  C 6.0656262505002 13.2378472222222  6.2593037214886 12.9730902777778  6.57623049219688 12.6692708333333  C 6.89315726290516 12.3654513888889  7.08683473389356 12.1701388888889  7.15726290516206 12.0833333333333  C 7.49179671868748 11.6319444444444  7.86594637855142 10.8984375  8.2797118847539 9.8828125  C 8.69347739095638 8.8671875  8.93557422969188 8.02951388888889  9.00600240096038 7.36979166666667  C 9.02360944377751 7.23090277777777  8.99719887955182 7.00954861111111  8.92677070828331 6.70572916666667  C 8.85634253701481 6.40190972222222  8.83873549419768 6.171875  8.87394957983193 6.015625  C 8.90916366546619 5.87673611111111  8.98839535814326 5.72048611111111  9.11164465786315 5.546875  C 9.23489395758303 5.37326388888889  9.39335734293718 5.17361111111111  9.58703481392557 4.94791666666667  C 9.78071228491397 4.72222222222222  9.93037214885954 4.53993055555555  10.0360144057623 4.40104166666667  C 10.1768707482993 4.19270833333333  10.3221288515406 3.92795138888889  10.4717887154862 3.60677083333333  C 10.6214485794318 3.28559027777777  10.7535014005602 2.98177083333333  10.8679471788715 2.6953125  C 10.9823929571829 2.40885416666667  11.1232492997199 2.09635416666667  11.2905162064826 1.7578125  C 11.4577831132453 1.41927083333333  11.6294517807123 1.14149305555555  11.8055222088836 0.924479166666665  C 11.9815926370548 0.707465277777772  12.2148859543818 0.503472222222219  12.5054021608643 0.3125  C 12.7959183673469 0.121527777777772  13.1128451380552 0.0217013888888884  13.4561824729892 0.0130208333333348  C 13.7995198079232 0.00434027777777235  14.2176870748299 0.0520833333333348  14.7106842737095 0.15625  L 14.6842737094838 0.234375  C 15.3533413365346 0.078125  15.8023209283713 0  16.031212484994 0  L 36.1296518607443 0  C 37.4325730292117 0  38.4361744697879 0.486111111111107  39.140456182473 1.45833333333333  C 39.8447378951581 2.43055555555555  40.0032012805122 3.55902777777777  39.6158463385354 4.84375  L 32.3793517406963 28.4375  C 31.7454981992797 30.5034722222222  31.1160464185674 31.8359375  30.4909963985594 32.4348958333333  C 29.8659463785514 33.0338541666667  28.734693877551 33.3333333333333  27.0972388955582 33  L 4.14645858343337 33  C 3.67106842737095 33.3333333333333  3.33653461384554 33.4635416666667  3.14285714285714 33.7239583333333  C 2.94917967186875 34.0017361111111  2.94037615046018 34.375  3.11644657863145 34.84375  C 3.5390156062425 36.0590277777778  4.80672268907563 36.6666666666667  6.91956782713085 36  L 31.296518607443 36  C 31.8071228491397 36.6666666666667  32.3001200480192 36.5321180555556  32.7755102040816 36.2630208333333  C 33.2509003601441 35.9939236111111  33.5590236094438 35.6336805555556  33.6998799519808 35.1822916666667  L 41.6230492196879 9.47916666666666  C 41.7462985194078 9.09722222222222  41.7903161264506 8.60243055555555  41.7551020408163 7.99479166666667  Z M 15.7671068427371 7.5  L 15.2124849939976 9.16666666666666  C 15.1420568227291 9.39236111111111  15.1596638655462 9.58767361111111  15.265306122449 9.75260416666666  C 15.3709483793517 9.91753472222222  15.547018807523 10  15.7935174069628 10  L 31.8511404561825 10  C 32.0800320128051 10  32.3045218087235 9.91753472222222  32.5246098439376 9.75260416666666  C 32.7446978791517 9.58767361111111  32.889955982393 9.39236111111111  32.9603841536615 9.16666666666666  L 33.515006002401 7.5  C 33.5854341736695 7.27430555555555  33.5678271308523 7.07899305555555  33.4621848739496 6.9140625  C 33.3565426170468 6.74913194444444  33.1804721888756 6.66666666666667  32.9339735894358 7  L 16.8763505402161 7  C 16.6474589835934 6.66666666666667  16.4229691876751 6.74913194444444  16.202881152461 6.9140625  C 15.9827931172469 7.07899305555555  15.8375350140056 7.27430555555555  15.7671068427371 7.5  Z M 13.5750300120048 14.1666666666667  L 13.0204081632653 15.8333333333333  C 12.9499799919968 16.0590277777778  12.9675870348139 16.2543402777778  13.0732292917167 16.4192708333333  C 13.1788715486194 16.5842013888889  13.3549419767907 16.6666666666667  13.6014405762305 17  L 29.6590636254502 17  C 29.8879551820728 16.6666666666667  30.1124449779912 16.5842013888889  30.3325330132053 16.4192708333333  C 30.5526210484194 16.2543402777778  30.6978791516607 16.0590277777778  30.7683073229292 15.8333333333333  L 31.3229291716687 14.1666666666667  C 31.3933573429372 13.9409722222222  31.37575030012 13.7456597222222  31.2701080432173 13.5807291666667  C 31.1644657863145 13.4157986111111  30.9883953581433 13.3333333333333  30.7418967587035 14  L 14.6842737094838 14  C 14.4553821528611 13.3333333333333  14.2308923569428 13.4157986111111  14.0108043217287 13.5807291666667  C 13.7907162865146 13.7456597222222  13.6454581832733 13.9409722222222  13.5750300120048 14.1666666666667  Z " fill-rule="nonzero" fill="#ffffff" stroke="none" transform="matrix(1 0 0 1 213 737 )" />
  </g>
</svg>