<?xml version="1.0" encoding="utf-8"?>
<svg version="1.1" xmlns:xlink="http://www.w3.org/1999/xlink" width="42px" height="46px" xmlns="http://www.w3.org/2000/svg">
  <g transform="matrix(1 0 0 1 -214 -282 )">
    <path d="M 3.23076923076923 35.3214285714286  L 3.23076923076923 42.7142857142857  L 10.5 42.7142857142857  L 10.5 35.3214285714286  L 3.23076923076923 35.3214285714286  Z M 12.1153846153846 35.3214285714286  L 12.1153846153846 42.7142857142857  L 20.1923076923077 42.7142857142857  L 20.1923076923077 35.3214285714286  L 12.1153846153846 35.3214285714286  Z M 3.23076923076923 25.4642857142857  L 3.23076923076923 33.6785714285714  L 10.5 33.6785714285714  L 10.5 25.4642857142857  L 3.23076923076923 25.4642857142857  Z M 12.1153846153846 25.4642857142857  L 12.1153846153846 33.6785714285714  L 20.1923076923077 33.6785714285714  L 20.1923076923077 25.4642857142857  L 12.1153846153846 25.4642857142857  Z M 3.23076923076923 16.4285714285714  L 3.23076923076923 23.8214285714286  L 10.5 23.8214285714286  L 10.5 16.4285714285714  L 3.23076923076923 16.4285714285714  Z M 21.8076923076923 35.3214285714286  L 21.8076923076923 42.7142857142857  L 29.8846153846154 42.7142857142857  L 29.8846153846154 35.3214285714286  L 21.8076923076923 35.3214285714286  Z M 12.1153846153846 16.4285714285714  L 12.1153846153846 23.8214285714286  L 20.1923076923077 23.8214285714286  L 20.1923076923077 16.4285714285714  L 12.1153846153846 16.4285714285714  Z M 31.5 35.3214285714286  L 31.5 42.7142857142857  L 38.7692307692308 42.7142857142857  L 38.7692307692308 35.3214285714286  L 31.5 35.3214285714286  Z M 21.8076923076923 25.4642857142857  L 21.8076923076923 33.6785714285714  L 29.8846153846154 33.6785714285714  L 29.8846153846154 25.4642857142857  L 21.8076923076923 25.4642857142857  Z M 12.6832932692308 12.0775669642857  C 12.8431490384615 11.9149925595238  12.9230769230769 11.7224702380952  12.9230769230769 11.5  L 12.9230769230769 4.10714285714286  C 12.9230769230769 3.88467261904762  12.8431490384615 3.69215029761905  12.6832932692308 3.52957589285714  C 12.5234375 3.36700148809523  12.3341346153846 3.28571428571428  12.1153846153846 3.28571428571428  L 10.5 3.28571428571428  C 10.28125 3.28571428571428  10.0919471153846 3.36700148809523  9.93209134615385 3.52957589285714  C 9.77223557692307 3.69215029761905  9.69230769230769 3.88467261904762  9.69230769230769 4.10714285714286  L 9.69230769230769 11.5  C 9.69230769230769 11.7224702380952  9.77223557692307 11.9149925595238  9.93209134615385 12.0775669642857  C 10.0919471153846 12.2401413690476  10.28125 12.3214285714286  10.5 12.3214285714286  L 12.1153846153846 12.3214285714286  C 12.3341346153846 12.3214285714286  12.5234375 12.2401413690476  12.6832932692308 12.0775669642857  Z M 31.5 25.4642857142857  L 31.5 33.6785714285714  L 38.7692307692308 33.6785714285714  L 38.7692307692308 25.4642857142857  L 31.5 25.4642857142857  Z M 21.8076923076923 16.4285714285714  L 21.8076923076923 23.8214285714286  L 29.8846153846154 23.8214285714286  L 29.8846153846154 16.4285714285714  L 21.8076923076923 16.4285714285714  Z M 31.5 16.4285714285714  L 31.5 23.8214285714286  L 38.7692307692308 23.8214285714286  L 38.7692307692308 16.4285714285714  L 31.5 16.4285714285714  Z M 32.0679086538462 12.0775669642857  C 32.2277644230769 11.9149925595238  32.3076923076923 11.7224702380952  32.3076923076923 11.5  L 32.3076923076923 4.10714285714286  C 32.3076923076923 3.88467261904762  32.2277644230769 3.69215029761905  32.0679086538462 3.52957589285714  C 31.9080528846154 3.36700148809523  31.71875 3.28571428571428  31.5 3.28571428571428  L 29.8846153846154 3.28571428571428  C 29.6658653846154 3.28571428571428  29.4765625 3.36700148809523  29.3167067307692 3.52957589285714  C 29.1568509615385 3.69215029761905  29.0769230769231 3.88467261904762  29.0769230769231 4.10714285714286  L 29.0769230769231 11.5  C 29.0769230769231 11.7224702380952  29.1568509615385 11.9149925595238  29.3167067307692 12.0775669642857  C 29.4765625 12.2401413690476  29.6658653846154 12.3214285714286  29.8846153846154 12.3214285714286  L 31.5 12.3214285714286  C 31.71875 12.3214285714286  31.9080528846154 12.2401413690476  32.0679086538462 12.0775669642857  Z M 41.0408653846154 7.546875  C 41.6802884615385 8.19717261904762  42 8.9672619047619  42 9.85714285714286  L 42 42.7142857142857  C 42 43.6041666666667  41.6802884615385 44.374255952381  41.0408653846154 45.0245535714286  C 40.4014423076923 45.6748511904762  39.6442307692308 46  38.7692307692308 46  L 3.23076923076923 46  C 2.35576923076923 46  1.59855769230769 45.6748511904762  0.959134615384615 45.0245535714286  C 0.319711538461538 44.374255952381  0 43.6041666666667  0 42.7142857142857  L 0 9.85714285714286  C 0 8.9672619047619  0.319711538461538 8.19717261904762  0.959134615384615 7.546875  C 1.59855769230769 6.89657738095238  2.35576923076923 6.57142857142857  3.23076923076923 6.57142857142857  L 6.46153846153846 6.57142857142857  L 6.46153846153846 4.10714285714286  C 6.46153846153846 2.97767857142857  6.85697115384615 2.01078869047619  7.64783653846154 1.20647321428572  C 8.43870192307693 0.402157738095239  9.38942307692308 0  10.5 0  L 12.1153846153846 0  C 13.2259615384615 0  14.1766826923077 0.402157738095239  14.9675480769231 1.20647321428572  C 15.7584134615385 2.01078869047619  16.1538461538462 2.97767857142857  16.1538461538462 4.10714285714286  L 16.1538461538462 6.57142857142857  L 25.8461538461538 6.57142857142857  L 25.8461538461538 4.10714285714286  C 25.8461538461538 2.97767857142857  26.2415865384615 2.01078869047619  27.0324519230769 1.20647321428572  C 27.8233173076923 0.402157738095239  28.7740384615385 0  29.8846153846154 0  L 31.5 0  C 32.6105769230769 0  33.5612980769231 0.402157738095239  34.3521634615385 1.20647321428572  C 35.1430288461539 2.01078869047619  35.5384615384615 2.97767857142857  35.5384615384615 4.10714285714286  L 35.5384615384615 6.57142857142857  L 38.7692307692308 6.57142857142857  C 39.6442307692308 6.57142857142857  40.4014423076923 6.89657738095238  41.0408653846154 7.546875  Z " fill-rule="nonzero" fill="#ffffff" stroke="none" transform="matrix(1 0 0 1 214 282 )" />
  </g>
</svg>