<?xml version="1.0" encoding="utf-8"?>
<svg version="1.1" xmlns:xlink="http://www.w3.org/1999/xlink" width="22px" height="20px" xmlns="http://www.w3.org/2000/svg">
  <g transform="matrix(1 0 0 1 -2 -2 )">
    <path d="M 18.3377403846154 12.5  C 18.5228365384615 12.578125  18.6153846153846 12.7039930555556  18.6153846153846 12.8776041666667  L 18.6153846153846 16.25  C 18.6153846153846 17.2829861111111  18.2429887820513 18.1662326388889  17.4981971153846 18.8997395833333  C 16.7534054487179 19.6332465277778  15.8565705128205 20  14.8076923076923 20  L 3.80769230769231 20  C 2.7588141025641 20  1.86197916666667 19.6332465277778  1.1171875 18.8997395833333  C 0.372395833333333 18.1662326388889  0 17.2829861111111  0 16.25  L 0 5.41666666666667  C 0 4.38368055555555  0.372395833333333 3.50043402777778  1.1171875 2.76692708333333  C 1.86197916666667 2.03342013888889  2.7588141025641 1.66666666666667  3.80769230769231 1.66666666666667  L 7.17908653846154 1.66666666666667  C 7.29366987179487 1.66666666666667  7.39282852564103 1.70789930555555  7.4765625 1.79036458333333  C 7.56029647435897 1.87282986111111  7.60216346153846 1.97048611111111  7.60216346153846 2.08333333333333  C 7.60216346153846 2.31770833333333  7.48758012820513 2.45659722222222  7.25841346153846 2.5  C 6.57972756410256 2.72569444444444  5.99358974358974 2.98611111111111  5.5 3.28125  C 5.41185897435897 3.31597222222222  5.34134615384615 3.33333333333333  5.28846153846154 3.33333333333333  L 3.80769230769231 3.33333333333333  C 3.22596153846154 3.33333333333333  2.72796474358974 3.53732638888889  2.31370192307692 3.9453125  C 1.8994391025641 4.35329861111111  1.69230769230769 4.84375  2 5.41666666666667  L 2 16.25  C 1.69230769230769 16.8229166666667  1.8994391025641 17.3133680555556  2.31370192307692 17.7213541666667  C 2.72796474358974 18.1293402777778  3.22596153846154 18.3333333333333  3.80769230769231 18  L 14.8076923076923 18  C 15.3894230769231 18.3333333333333  15.8874198717949 18.1293402777778  16.3016826923077 17.7213541666667  C 16.7159455128205 17.3133680555556  16.9230769230769 16.8229166666667  16.9230769230769 16.25  L 16.9230769230769 13.4635416666667  C 16.9230769230769 13.2986111111111  17.0024038461538 13.1727430555556  17.1610576923077 13.0859375  C 17.4078525641026 12.9730902777778  17.6458333333333 12.8125  17.875 12.6041666666667  C 18.0160256410256 12.4652777777778  18.1702724358974 12.4305555555556  18.3377403846154 12.5  Z M 22 5.83333333333333  C 22 6.05902777777778  21.916266025641 6.25434027777778  21.7487980769231 6.41927083333333  L 16.671875 11.4192708333333  C 16.5132211538462 11.5842013888889  16.3149038461538 11.6666666666667  16.0769230769231 11.6666666666667  C 15.9711538461538 11.6666666666667  15.8609775641026 11.6449652777778  15.7463942307692 11.6015625  C 15.4026442307692 11.4539930555556  15.2307692307692 11.1979166666667  15.2307692307692 10.8333333333333  L 15.2307692307692 8.33333333333333  L 13.1153846153846 8.33333333333333  C 10.2684294871795 8.33333333333333  8.33814102564103 8.90190972222222  7.32451923076923 10.0390625  C 6.27564102564103 11.2282986111111  5.94951923076923 13.28125  6.34615384615385 16.1979166666667  C 6.37259615384615 16.3975694444444  6.28445512820513 16.5451388888889  6.08173076923077 16.640625  C 6.01121794871795 16.6579861111111  5.95833333333333 16.6666666666667  5.92307692307692 16.6666666666667  C 5.78205128205128 16.6666666666667  5.66746794871795 16.6102430555556  5.57932692307692 16.4973958333333  C 5.4911858974359 16.3758680555556  5.39863782051282 16.2413194444444  5.30168269230769 16.09375  C 5.20472756410256 15.9461805555556  5.03064903846154 15.6488715277778  4.77944711538462 15.2018229166667  C 4.52824519230769 14.7547743055556  4.31009615384615 14.3229166666667  4.125 13.90625  C 3.93990384615385 13.4895833333333  3.77023237179487 12.9947916666667  3.61598557692308 12.421875  C 3.46173878205128 11.8489583333333  3.38461538461539 11.3194444444444  3.38461538461539 10.8333333333333  C 3.38461538461539 10.4079861111111  3.40004006410256 10.0130208333333  3.43088942307692 9.6484375  C 3.46173878205128 9.28385416666666  3.5234375 8.89322916666666  3.61598557692308 8.4765625  C 3.70853365384615 8.05989583333333  3.83193108974359 7.67795138888889  3.98617788461539 7.33072916666667  C 4.14042467948718 6.98350694444444  4.34755608974359 6.62977430555555  4.60757211538462 6.26953125  C 4.86758814102564 5.90928819444444  5.16947115384615 5.58810763888889  5.51322115384615 5.30598958333333  C 5.85697115384615 5.02387152777778  6.2734375 4.75694444444444  6.76262019230769 4.50520833333333  C 7.25180288461539 4.25347222222222  7.80048076923077 4.04296875  8.40865384615384 3.87369791666667  C 9.01682692307692 3.70442708333333  9.7197516025641 3.57204861111111  10.5174278846154 3.4765625  C 11.3151041666667 3.38107638888889  12.1810897435897 3.33333333333333  13.1153846153846 3.33333333333333  L 15.2307692307692 3.33333333333333  L 15.2307692307692 0.833333333333333  C 15.2307692307692 0.46875  15.4026442307692 0.212673611111109  15.7463942307692 0.0651041666666674  C 15.8609775641026 0.0217013888888906  15.9711538461538 0  16.0769230769231 0  C 16.3060897435897 0  16.5044070512821 0.082465277777779  16.671875 0.247395833333333  L 21.7487980769231 5.24739583333333  C 21.916266025641 5.41232638888889  22 5.60763888888889  22 5.83333333333333  Z " fill-rule="nonzero" fill="#000000" stroke="none" transform="matrix(1 0 0 1 2 2 )" />
  </g>
</svg>