<?xml version="1.0" encoding="utf-8"?>
<svg version="1.1" xmlns:xlink="http://www.w3.org/1999/xlink" width="33px" height="37px" xmlns="http://www.w3.org/2000/svg">
  <g transform="matrix(1 0 0 1 -460 -288 )">
    <path d="M 2.53846153846154 28.4107142857143  L 2.53846153846154 34.3571428571429  L 8.25 34.3571428571429  L 8.25 28.4107142857143  L 2.53846153846154 28.4107142857143  Z M 9.51923076923077 28.4107142857143  L 9.51923076923077 34.3571428571429  L 15.8653846153846 34.3571428571429  L 15.8653846153846 28.4107142857143  L 9.51923076923077 28.4107142857143  Z M 2.53846153846154 20.4821428571429  L 2.53846153846154 27.0892857142857  L 8.25 27.0892857142857  L 8.25 20.4821428571429  L 2.53846153846154 20.4821428571429  Z M 9.51923076923077 20.4821428571429  L 9.51923076923077 27.0892857142857  L 15.8653846153846 27.0892857142857  L 15.8653846153846 20.4821428571429  L 9.51923076923077 20.4821428571429  Z M 2.53846153846154 13.2142857142857  L 2.53846153846154 19.1607142857143  L 8.25 19.1607142857143  L 8.25 13.2142857142857  L 2.53846153846154 13.2142857142857  Z M 17.1346153846154 28.4107142857143  L 17.1346153846154 34.3571428571429  L 23.4807692307692 34.3571428571429  L 23.4807692307692 28.4107142857143  L 17.1346153846154 28.4107142857143  Z M 9.51923076923077 13.2142857142857  L 9.51923076923077 19.1607142857143  L 15.8653846153846 19.1607142857143  L 15.8653846153846 13.2142857142857  L 9.51923076923077 13.2142857142857  Z M 24.75 28.4107142857143  L 24.75 34.3571428571429  L 30.4615384615385 34.3571428571429  L 30.4615384615385 28.4107142857143  L 24.75 28.4107142857143  Z M 17.1346153846154 20.4821428571429  L 17.1346153846154 27.0892857142857  L 23.4807692307692 27.0892857142857  L 23.4807692307692 20.4821428571429  L 17.1346153846154 20.4821428571429  Z M 9.96544471153846 9.71456473214286  C 10.0910456730769 9.58379836309524  10.1538461538462 9.42894345238095  10.1538461538462 9.25  L 10.1538461538462 3.30357142857143  C 10.1538461538462 3.12462797619048  10.0910456730769 2.96977306547619  9.96544471153846 2.83900669642857  C 9.83984375 2.70824032738095  9.69110576923077 2.64285714285714  9.51923076923077 2.64285714285714  L 8.25 2.64285714285714  C 8.078125 2.64285714285714  7.92938701923077 2.70824032738095  7.80378605769231 2.83900669642857  C 7.67818509615384 2.96977306547619  7.61538461538462 3.12462797619048  7.61538461538462 3.30357142857143  L 7.61538461538462 9.25  C 7.61538461538462 9.42894345238095  7.67818509615384 9.58379836309524  7.80378605769231 9.71456473214286  C 7.92938701923077 9.84533110119048  8.078125 9.91071428571429  8.25 9.91071428571429  L 9.51923076923077 9.91071428571429  C 9.69110576923077 9.91071428571429  9.83984375 9.84533110119048  9.96544471153846 9.71456473214286  Z M 24.75 20.4821428571429  L 24.75 27.0892857142857  L 30.4615384615385 27.0892857142857  L 30.4615384615385 20.4821428571429  L 24.75 20.4821428571429  Z M 17.1346153846154 13.2142857142857  L 17.1346153846154 19.1607142857143  L 23.4807692307692 19.1607142857143  L 23.4807692307692 13.2142857142857  L 17.1346153846154 13.2142857142857  Z M 24.75 13.2142857142857  L 24.75 19.1607142857143  L 30.4615384615385 19.1607142857143  L 30.4615384615385 13.2142857142857  L 24.75 13.2142857142857  Z M 25.1962139423077 9.71456473214286  C 25.3218149038462 9.58379836309524  25.3846153846154 9.42894345238095  25.3846153846154 9.25  L 25.3846153846154 3.30357142857143  C 25.3846153846154 3.12462797619048  25.3218149038462 2.96977306547619  25.1962139423077 2.83900669642857  C 25.0706129807692 2.70824032738095  24.921875 2.64285714285714  24.75 2.64285714285714  L 23.4807692307692 2.64285714285714  C 23.3088942307692 2.64285714285714  23.16015625 2.70824032738095  23.0345552884615 2.83900669642857  C 22.9089543269231 2.96977306547619  22.8461538461538 3.12462797619048  22.8461538461538 3.30357142857143  L 22.8461538461538 9.25  C 22.8461538461538 9.42894345238095  22.9089543269231 9.58379836309524  23.0345552884615 9.71456473214286  C 23.16015625 9.84533110119048  23.3088942307692 9.91071428571429  23.4807692307692 9.91071428571429  L 24.75 9.91071428571429  C 24.921875 9.91071428571429  25.0706129807692 9.84533110119048  25.1962139423077 9.71456473214286  Z M 32.2463942307692 6.0703125  C 32.7487980769231 6.59337797619048  33 7.21279761904762  33 7.92857142857143  L 33 34.3571428571429  C 33 35.0729166666667  32.7487980769231 35.6923363095238  32.2463942307692 36.2154017857143  C 31.7439903846154 36.7384672619048  31.1490384615385 37  30.4615384615385 37  L 2.53846153846154 37  C 1.85096153846154 37  1.25600961538462 36.7384672619048  0.753605769230769 36.2154017857143  C 0.251201923076923 35.6923363095238  0 35.0729166666667  0 34.3571428571429  L 0 7.92857142857143  C 0 7.21279761904762  0.251201923076923 6.59337797619048  0.753605769230769 6.0703125  C 1.25600961538462 5.54724702380952  1.85096153846154 5.28571428571429  2.53846153846154 5.28571428571429  L 5.07692307692308 5.28571428571429  L 5.07692307692308 3.30357142857143  C 5.07692307692308 2.39508928571429  5.38762019230769 1.61737351190476  6.00901442307692 0.970424107142858  C 6.63040865384616 0.323474702380953  7.37740384615385 0  8.25 0  L 9.51923076923077 0  C 10.3918269230769 0  11.1388221153846 0.323474702380953  11.7602163461538 0.970424107142858  C 12.3816105769231 1.61737351190476  12.6923076923077 2.39508928571429  12.6923076923077 3.30357142857143  L 12.6923076923077 5.28571428571429  L 20.3076923076923 5.28571428571429  L 20.3076923076923 3.30357142857143  C 20.3076923076923 2.39508928571429  20.6183894230769 1.61737351190476  21.2397836538462 0.970424107142858  C 21.8611778846154 0.323474702380953  22.6081730769231 0  23.4807692307692 0  L 24.75 0  C 25.6225961538462 0  26.3695913461538 0.323474702380953  26.9909855769231 0.970424107142858  C 27.6123798076923 1.61737351190476  27.9230769230769 2.39508928571429  27.9230769230769 3.30357142857143  L 27.9230769230769 5.28571428571429  L 30.4615384615385 5.28571428571429  C 31.1490384615385 5.28571428571429  31.7439903846154 5.54724702380952  32.2463942307692 6.0703125  Z " fill-rule="nonzero" fill="#ffffff" stroke="none" transform="matrix(1 0 0 1 460 288 )" />
  </g>
</svg>