<?xml version="1.0" encoding="utf-8"?>
<svg version="1.1" xmlns:xlink="http://www.w3.org/1999/xlink" width="31px" height="27px" xmlns="http://www.w3.org/2000/svg">
  <g transform="matrix(1 0 0 1 -168 -289 )">
    <path d="M 21.9871651785714 17.841796875  C 22.0909598214286 17.736328125  22.1428571428571 17.6015625  22.1428571428571 17.4375  L 22.1428571428571 14.0625  C 22.1428571428571 13.8984375  22.0909598214286 13.763671875  21.9871651785714 13.658203125  C 21.8833705357143 13.552734375  21.7507440476191 13.5  21.5892857142857 13.5  L 17.7142857142857 13.5  L 17.7142857142857 9.5625  C 17.7142857142857 9.3984375  17.6623883928571 9.263671875  17.55859375 9.158203125  C 17.4547991071429 9.052734375  17.3221726190476 9  17.1607142857143 9  L 13.8392857142857 9  C 13.6778273809524 9  13.5452008928571 9.052734375  13.44140625 9.158203125  C 13.3376116071429 9.263671875  13.2857142857143 9.3984375  13.2857142857143 9.5625  L 13.2857142857143 13.5  L 9.41071428571428 13.5  C 9.24925595238095 13.5  9.11662946428572 13.552734375  9.01283482142857 13.658203125  C 8.90904017857143 13.763671875  8.85714285714286 13.8984375  8.85714285714286 14.0625  L 8.85714285714286 17.4375  C 8.85714285714286 17.6015625  8.90904017857143 17.736328125  9.01283482142857 17.841796875  C 9.11662946428572 17.947265625  9.24925595238095 18  9.41071428571428 18  L 13.2857142857143 18  L 13.2857142857143 21.9375  C 13.2857142857143 22.1015625  13.3376116071429 22.236328125  13.44140625 22.341796875  C 13.5452008928571 22.447265625  13.6778273809524 22.5  13.8392857142857 22.5  L 17.1607142857143 22.5  C 17.3221726190476 22.5  17.4547991071429 22.447265625  17.55859375 22.341796875  C 17.6623883928571 22.236328125  17.7142857142857 22.1015625  17.7142857142857 21.9375  L 17.7142857142857 18  L 21.5892857142857 18  C 21.7507440476191 18  21.8833705357143 17.947265625  21.9871651785714 17.841796875  Z M 11.0714285714286 2.25  L 11.0714285714286 4.5  L 19.9285714285714 4.5  L 19.9285714285714 2.25  L 11.0714285714286 2.25  Z M 3.875 4.5  L 5 4.5  L 5 27  L 3.875 27  C 2.8139880952381 27  1.90290178571429 26.61328125  1.14174107142857 25.83984375  C 0.380580357142857 25.06640625  0 24.140625  0 23.0625  L 0 8.4375  C 0 7.359375  0.380580357142857 6.43359375  1.14174107142857 5.66015625  C 1.90290178571429 4.88671875  2.8139880952381 4.5  3.875 4.5  Z M 22.1428571428571 4.5  L 25 4.5  L 25 27  L 6 27  L 6 4.5  L 8.85714285714286 4.5  L 8.85714285714286 1.6875  C 8.85714285714286 1.21875  9.01860119047619 0.820312499999996  9.34151785714286 0.492187499999999  C 9.66443452380953 0.164062499999999  10.0565476190476 0  10.5178571428571 0  L 20.4821428571429 0  C 20.9434523809524 0  21.3355654761905 0.164062499999999  21.6584821428571 0.492187499999999  C 21.9813988095238 0.820312499999996  22.1428571428571 1.21875  22.1428571428571 1.6875  L 22.1428571428571 4.5  Z M 29.8582589285714 5.66015625  C 30.6194196428571 6.43359375  31 7.359375  31 8.4375  L 31 23.0625  C 31 24.140625  30.6194196428571 25.06640625  29.8582589285714 25.83984375  C 29.0970982142857 26.61328125  28.1860119047619 27  27.125 27  L 26 27  L 26 4.5  L 27.125 4.5  C 28.1860119047619 4.5  29.0970982142857 4.88671875  29.8582589285714 5.66015625  Z " fill-rule="nonzero" fill="#487cab" stroke="none" transform="matrix(1 0 0 1 168 289 )" />
  </g>
</svg>